<svg width="50" height="50" viewBox="0 0 50 50" fill="none" xmlns="http://www.w3.org/2000/svg">
<g id="foundation:music">
<path id="Vector" d="M42.0525 6.81348H16.469C16.0454 6.81361 15.6391 6.98196 15.3395 7.28152C15.04 7.58108 14.8716 7.98733 14.8715 8.41098V32.4455C14.2899 32.3158 13.6959 32.2498 13.1 32.2485C9.372 32.2485 6.35 34.6965 6.35 37.7175C6.35 40.738 9.372 43.186 13.1 43.186C16.8275 43.186 19.85 40.738 19.85 37.7175V14.6285H38.672V27.829C38.0904 27.6993 37.4964 27.6333 36.9005 27.632C33.1725 27.632 30.1505 30.08 30.1505 33.101C30.1505 36.122 33.1725 38.5695 36.9005 38.5695C40.628 38.5695 43.6505 36.1215 43.6505 33.101V8.41148C43.6504 7.9877 43.482 7.58132 43.1823 7.28167C42.8827 6.98201 42.4763 6.81361 42.0525 6.81348Z" fill="white"/>
</g>
</svg>
