<svg width="24" height="18" viewBox="0 0 24 18" fill="none" xmlns="http://www.w3.org/2000/svg">
<path d="M23.5 3.50695C23.3641 3.02219 23.0994 2.5833 22.734 2.23695C22.3583 1.87996 21.8978 1.62459 21.396 1.49495C19.518 0.999954 11.994 0.999954 11.994 0.999954C8.85734 0.964267 5.72144 1.12123 2.60401 1.46995C2.1022 1.60917 1.64257 1.87024 1.26601 2.22995C0.896007 2.58595 0.628007 3.02495 0.488007 3.50595C0.1517 5.3177 -0.0117011 7.1573 6.83166e-06 8.99995C-0.0119932 10.841 0.151007 12.68 0.488007 14.494C0.625007 14.973 0.892007 15.41 1.26301 15.763C1.63401 16.116 2.09601 16.371 2.60401 16.506C4.50701 17 11.994 17 11.994 17C15.1347 17.0357 18.2746 16.8787 21.396 16.53C21.8978 16.4003 22.3583 16.145 22.734 15.788C23.104 15.435 23.367 14.996 23.499 14.518C23.8441 12.7069 24.0119 10.8665 24 9.02295C24.026 7.17156 23.8584 5.32252 23.5 3.50595V3.50695ZM9.60201 12.424V5.57695L15.862 9.00095L9.60201 12.424Z" fill="black"/>
</svg>
